<svg width="129" height="43" viewBox="0 0 129 43" fill="none" xmlns="http://www.w3.org/2000/svg" style="background: black;">
<g clip-path="url(#clip0_776_4358)">
<path d="M43.1562 27.0175H55.6397V24.1934H46.1353V17.9734H55.3561V15.1492H46.1353V9.21507H55.6397V6.38745H43.1562V27.0175Z" fill="white"/>
<path d="M58.7695 27.0176H61.6121V18.9984C61.6488 18.196 61.9931 17.4382 62.574 16.881C63.1549 16.3238 63.9282 16.0098 64.7347 16.0035C66.6075 16.0035 67.4862 17.0215 67.5702 18.8311V27.0245H70.4093V18.8276C70.4093 15.7176 68.4244 13.4583 65.0182 13.4583C63.884 13.4583 62.4662 14.0231 61.8956 14.8529L61.7556 14.9923L61.6121 14.8529L61.3285 13.7232H58.7765L58.7695 27.0176Z" fill="white"/>
<path d="M77.9147 23.231L74.652 13.7371H71.813L76.6369 27.0174H79.1924L84.0129 13.7371H81.1773L77.9147 23.231Z" fill="white"/>
<path d="M91.4029 15.9966C93.1042 15.9966 94.5255 17.1262 94.6655 18.5975H87.8672C88.2803 17.1262 89.418 15.9966 91.4029 15.9966ZM97.354 21.0835L97.6376 20.2362C97.6376 16.1395 94.802 13.4548 91.3959 13.4548C87.7061 13.4548 84.8706 16.279 84.8706 20.3757C84.8706 24.4724 87.8672 27.3 91.4029 27.3C92.5907 27.3174 93.7606 27.0103 94.7857 26.4123C95.8107 25.8143 96.6518 24.948 97.2175 23.9076L94.837 22.778C94.41 23.9076 93.2477 24.7583 91.5464 24.7583C89.1344 24.7583 87.7132 23.0604 87.7132 21.0835H97.354Z" fill="white"/>
<path d="M110.271 20.3757C110.271 22.7779 108.563 24.7548 106.154 24.7548C103.459 24.7548 102.01 22.7745 102.01 20.3722C102.01 17.9699 103.459 15.9931 106.154 15.9931C108.563 15.9965 110.271 17.9734 110.271 20.3757ZM112.823 5.54028H109.988V14.8669L109.844 15.0063L109.704 14.8669C108.692 13.9599 107.376 13.4625 106.014 13.4723C102.325 13.4723 99.2056 16.2964 99.2056 20.3931C99.2056 24.4898 102.325 27.3175 106.014 27.3175C107.377 27.3324 108.695 26.8343 109.704 25.9228L109.844 25.7799L109.988 25.9228L110.271 27.0525H112.823V5.54028Z" fill="white"/>
<path d="M126.448 20.3755C126.448 22.7778 124.747 24.7581 122.335 24.7581C119.639 24.7581 118.19 22.7778 118.19 20.3755C118.19 17.9732 119.639 15.9964 122.335 15.9964C124.747 15.9964 126.448 17.9732 126.448 20.3755ZM129 13.751H126.448L126.164 14.8806L126.024 14.9922L125.884 14.8528C124.875 13.9407 123.557 13.4425 122.195 13.4581C118.508 13.4581 115.386 16.2823 115.386 20.379C115.386 24.4757 118.508 27.3033 122.195 27.3033C123.557 27.3189 124.875 26.8207 125.884 25.9087L126.024 25.7658L126.168 25.9087L126.451 27.0384H129.003L129 13.751Z" fill="white"/>
<path d="M45.4775 40.7127H46.6537C46.8268 40.7121 46.9998 40.7016 47.1718 40.6813C47.3498 40.6651 47.5237 40.6191 47.6864 40.5454C47.837 40.476 47.969 40.372 48.0715 40.242C48.1806 40.0808 48.2346 39.8889 48.2255 39.6946C48.2403 39.5453 48.2131 39.3948 48.147 39.2599C48.0808 39.1251 47.9783 39.0112 47.8509 38.9311C47.4926 38.7637 47.0976 38.6893 46.7027 38.7149H45.4775V40.7127ZM45.4775 37.6585H46.6432C46.9773 37.6816 47.3103 37.5999 47.5954 37.4249C47.6978 37.3531 47.7811 37.2574 47.8379 37.1462C47.8946 37.035 47.9231 36.9116 47.9209 36.7868C47.9281 36.6547 47.8993 36.5232 47.8377 36.406C47.7761 36.2888 47.6839 36.1903 47.5709 36.1209C47.2499 35.9468 46.885 35.8693 46.5207 35.8978H45.4705L45.4775 37.6585ZM44.1997 34.8413H47.0002C47.2705 34.8405 47.5398 34.8733 47.8019 34.9389C48.0533 34.9923 48.2914 35.0955 48.502 35.2423C48.7259 35.3851 48.9084 35.5839 49.0312 35.8188C49.1541 36.0537 49.213 36.3165 49.2022 36.5811C49.214 36.9369 49.0887 37.2836 48.8521 37.5504C48.6097 37.8133 48.2979 38.0029 47.9524 38.0978V38.1187C48.1675 38.1419 48.3764 38.2045 48.5686 38.3035C48.9429 38.4776 49.2343 38.7903 49.3807 39.1751C49.4632 39.3704 49.5049 39.5804 49.5032 39.7923C49.5155 40.124 49.4342 40.4525 49.2687 40.7406C49.1141 40.9883 48.903 41.1961 48.6526 41.3473C48.3816 41.5045 48.0856 41.6142 47.7774 41.6715C47.4511 41.7358 47.1193 41.7685 46.7867 41.7692H44.1997V34.8413Z" fill="white"/>
<path d="M53.9491 34.8413H52.6714V41.7691H53.9491V34.8413Z" fill="white"/>
<path d="M58.4017 38.2548C58.3952 38.6109 58.4533 38.9652 58.5732 39.3007C58.6879 39.6018 58.8603 39.8777 59.0808 40.1131C59.2987 40.3419 59.5606 40.5245 59.851 40.65C60.5013 40.9105 61.2275 40.9105 61.8779 40.65C62.1757 40.5226 62.443 40.3337 62.662 40.0957C62.8817 39.8615 63.0508 39.5851 63.1591 39.2833C63.286 38.9493 63.3477 38.5943 63.3411 38.2373C63.3444 37.9055 63.2826 37.5763 63.1591 37.2681C63.0475 36.9824 62.8783 36.7226 62.662 36.5045C62.4438 36.2732 62.1773 36.0923 61.8814 35.9745C61.231 35.7141 60.5048 35.7141 59.8545 35.9745C59.5631 36.095 59.3006 36.2756 59.0843 36.5045C58.8651 36.7289 58.6926 36.9944 58.5767 37.2855C58.4589 37.5951 58.3995 37.9237 58.4017 38.2548ZM57.0609 38.3524C57.0536 37.8354 57.15 37.3221 57.3445 36.8427C57.5207 36.4047 57.7865 36.0081 58.1251 35.6782C58.47 35.3555 58.8774 35.1064 59.3224 34.946C59.8116 34.7647 60.3302 34.6749 60.8522 34.681C61.3762 34.6693 61.898 34.752 62.3925 34.9251C62.8421 35.0788 63.2538 35.326 63.6002 35.6503C63.9414 35.9762 64.2108 36.3692 64.3914 36.8043C64.5858 37.2825 64.6822 37.7947 64.6749 38.3106C64.682 38.8174 64.5855 39.3203 64.3914 39.7889C64.2089 40.2209 63.9397 40.6113 63.6002 40.936C63.2489 41.2606 62.8391 41.5161 62.3925 41.6891C61.8988 41.8683 61.3776 41.9604 60.8522 41.961C60.3311 41.9671 59.8131 41.8809 59.3224 41.7065C58.8787 41.5435 58.4718 41.2946 58.1251 40.9743C57.7892 40.6489 57.5236 40.2585 57.3445 39.8272C57.1506 39.3598 57.0541 38.8581 57.0609 38.3524Z" fill="white"/>
<path d="M71.3401 36.3266C71.2025 36.1377 71.011 35.9944 70.7905 35.9152C70.5681 35.8254 70.3304 35.7792 70.0904 35.7792C69.9443 35.7796 69.7988 35.7959 69.6563 35.828C69.5233 35.8584 69.3966 35.9115 69.2817 35.9849C69.1734 36.0585 69.0825 36.1549 69.0157 36.2673C68.9461 36.3894 68.911 36.528 68.9142 36.6683C68.9089 36.7723 68.9295 36.8761 68.9741 36.9703C69.0187 37.0646 69.0858 37.1464 69.1697 37.2087C69.3627 37.3439 69.5736 37.4519 69.7963 37.5295C70.0484 37.6236 70.3214 37.7108 70.619 37.7945C70.9069 37.8755 71.1834 37.9927 71.4417 38.1431C71.6917 38.2939 71.9056 38.4974 72.0683 38.7393C72.2509 39.0365 72.3399 39.3814 72.3238 39.7295C72.3301 40.0682 72.257 40.4036 72.1103 40.7092C71.9731 40.9821 71.7756 41.2205 71.5327 41.4066C71.2835 41.5948 71.0008 41.7344 70.6995 41.818C70.3727 41.9099 70.0345 41.9557 69.6948 41.9539C69.2572 41.9565 68.8225 41.8833 68.4101 41.7378C68.0022 41.5938 67.6398 41.3448 67.3599 41.0161L68.298 40.0956C68.4514 40.3224 68.6597 40.507 68.9037 40.6325C69.1571 40.754 69.4346 40.8171 69.7158 40.8173C69.8672 40.8182 70.018 40.7983 70.1639 40.758C70.3065 40.7214 70.4423 40.6625 70.5665 40.5837C70.6844 40.5082 70.7847 40.4083 70.8605 40.2908C70.937 40.1635 70.9758 40.0173 70.9726 39.869C70.9803 39.7584 70.9615 39.6476 70.9177 39.5457C70.8738 39.4439 70.8062 39.3539 70.7205 39.2832C70.5316 39.1326 70.3186 39.0147 70.0904 38.9346C69.8221 38.8304 69.5487 38.7396 69.2712 38.6626C68.9844 38.5786 68.7083 38.4616 68.4486 38.314C68.2004 38.1637 67.9868 37.9629 67.822 37.7247C67.6378 37.4295 67.5486 37.0852 67.5664 36.738C67.5574 36.4135 67.6346 36.0923 67.7904 35.8071C67.9404 35.5512 68.1447 35.3311 68.3891 35.1621C68.6461 34.9809 68.9345 34.8485 69.2397 34.7716C69.5568 34.6851 69.8842 34.6417 70.2129 34.6426C70.5846 34.6417 70.9543 34.6982 71.3086 34.8099C71.6656 34.9206 71.9942 35.1074 72.2713 35.3573L71.3401 36.3266Z" fill="white"/>
<path d="M80.4947 36.4661C80.2829 36.227 80.0196 36.0387 79.7245 35.9152C79.4885 35.826 79.2383 35.78 78.9859 35.7792C78.6377 35.7752 78.2923 35.8417 77.9707 35.9745C77.6793 36.095 77.4168 36.2756 77.2005 36.5044C76.9813 36.7289 76.8088 36.9943 76.6929 37.2854C76.578 37.5957 76.5199 37.924 76.5214 38.2547C76.5167 38.6107 76.5748 38.9647 76.6929 39.3007C76.8076 39.6017 76.98 39.8776 77.2005 40.113C77.4184 40.3418 77.6803 40.5244 77.9707 40.65C78.2918 40.7844 78.6376 40.8509 78.9859 40.8452C79.2774 40.8462 79.5651 40.7793 79.826 40.65C80.1273 40.494 80.3903 40.2738 80.5962 40.005L81.6464 40.7302C81.3422 41.1429 80.9323 41.4668 80.4597 41.6681C79.9874 41.8647 79.4802 41.9643 78.9684 41.9609C78.4473 41.9671 77.9293 41.8809 77.4386 41.7064C76.9949 41.5434 76.588 41.2946 76.2413 40.9742C75.9054 40.6488 75.6398 40.2585 75.4607 39.8272C75.2668 39.3598 75.1703 38.858 75.1771 38.3523C75.1698 37.8353 75.2662 37.3221 75.4607 36.8426C75.6369 36.4047 75.9027 36.0081 76.2413 35.6781C76.5862 35.3554 76.9936 35.1063 77.4386 34.9459C77.9278 34.7646 78.4464 34.6748 78.9684 34.681C79.4301 34.6758 79.8883 34.7623 80.3161 34.9355C80.7659 35.1199 81.1654 35.4078 81.4819 35.7757L80.4947 36.4661Z" fill="white"/>
<path d="M85.6825 34.8413H84.4048V41.7691H85.6825V34.8413Z" fill="white"/>
<path d="M89.1831 34.8413H93.9405V35.957H90.4609V37.6585H93.755V38.7742H90.4609V40.6534H94.1225V41.7691H89.1831V34.8413Z" fill="white"/>
<path d="M97.3086 34.8413H99.0029L102.479 39.9875H102.5V34.8413H103.778V41.7691H102.154L98.6073 36.4556H98.5863V41.7691H97.3086V34.8413Z" fill="white"/>
<path d="M112.232 36.4661C112.02 36.2277 111.756 36.0396 111.462 35.9152C111.225 35.8256 110.973 35.7796 110.72 35.7792C110.373 35.7752 110.028 35.8416 109.708 35.9745C109.416 36.0941 109.153 36.2749 108.938 36.5044C108.719 36.7289 108.546 36.9943 108.43 37.2854C108.314 37.5952 108.255 37.9238 108.259 38.2547C108.252 38.6108 108.31 38.9651 108.43 39.3007C108.545 39.6017 108.717 39.8776 108.938 40.113C109.155 40.3426 109.417 40.5253 109.708 40.65C110.028 40.7844 110.372 40.8509 110.72 40.8452C111.012 40.8462 111.301 40.7793 111.563 40.65C111.864 40.4931 112.127 40.273 112.334 40.005L113.384 40.7302C113.079 41.1429 112.67 41.4668 112.197 41.6681C111.725 41.8647 111.218 41.9643 110.706 41.9609C110.185 41.9671 109.667 41.8809 109.176 41.7064C108.733 41.5418 108.326 41.2931 107.979 40.9742C107.644 40.6477 107.379 40.2577 107.198 39.8272C107.004 39.3598 106.908 38.858 106.914 38.3523C106.907 37.8353 107.004 37.3221 107.198 36.8426C107.376 36.4054 107.641 36.009 107.979 35.6781C108.325 35.3569 108.732 35.108 109.176 34.9459C109.665 34.7646 110.184 34.6748 110.706 34.681C111.169 34.6754 111.628 34.762 112.057 34.9355C112.505 35.1223 112.904 35.4098 113.223 35.7757L112.232 36.4661Z" fill="white"/>
<path d="M116.17 34.8413H120.927V35.957H117.448V37.6585H120.745V38.7742H117.448V40.6534H121.109V41.7691H116.17V34.8413Z" fill="white"/>
<path d="M127.813 36.3267C127.676 36.1387 127.486 35.9954 127.267 35.9153C127.045 35.8257 126.807 35.7795 126.567 35.7793C126.42 35.7796 126.273 35.796 126.129 35.8281C125.997 35.8592 125.87 35.9122 125.755 35.985C125.647 36.0578 125.557 36.1545 125.492 36.2674C125.423 36.3895 125.388 36.5281 125.391 36.6684C125.385 36.7722 125.405 36.8758 125.449 36.9701C125.493 37.0644 125.559 37.1464 125.643 37.2088C125.838 37.3433 126.049 37.4512 126.273 37.5296C126.522 37.6237 126.798 37.7109 127.096 37.7945C127.383 37.875 127.658 37.9922 127.915 38.1432C128.166 38.2939 128.381 38.4973 128.545 38.7394C128.726 39.037 128.814 39.3819 128.797 39.7296C128.805 40.0684 128.732 40.4043 128.583 40.7093C128.448 40.9836 128.251 41.2225 128.006 41.4066C127.758 41.5951 127.476 41.7347 127.176 41.8181C126.849 41.9098 126.511 41.9556 126.171 41.954C125.733 41.9563 125.297 41.8831 124.883 41.7379C124.476 41.5928 124.114 41.344 123.833 41.0161L124.796 40.1166C124.951 40.3428 125.161 40.5272 125.405 40.6535C125.658 40.7753 125.936 40.8385 126.217 40.8383C126.367 40.8392 126.517 40.8193 126.662 40.7791C126.805 40.7427 126.942 40.6839 127.068 40.6047C127.186 40.5292 127.286 40.4293 127.362 40.3119C127.437 40.1839 127.475 40.0381 127.474 39.89C127.481 39.7791 127.462 39.6681 127.417 39.5663C127.373 39.4644 127.305 39.3745 127.218 39.3042C127.03 39.1543 126.818 39.0365 126.592 38.9556C126.339 38.858 126.066 38.7673 125.769 38.6836C125.483 38.6004 125.208 38.4833 124.95 38.335C124.7 38.1858 124.485 37.9848 124.32 37.7457C124.139 37.4491 124.051 37.1056 124.068 36.759C124.059 36.435 124.135 36.1142 124.288 35.8281C124.44 35.5737 124.644 35.354 124.887 35.1831C125.145 35.0026 125.435 34.8702 125.741 34.7926C126.058 34.7058 126.385 34.6624 126.714 34.6636C127.085 34.6624 127.453 34.7189 127.806 34.831C128.164 34.9415 128.494 35.1283 128.772 35.3783L127.813 36.3267Z" fill="white"/>
<path d="M13.936 36.3756C13.8344 36.3765 13.7337 36.3573 13.6397 36.3191C13.5456 36.281 13.4601 36.2245 13.3881 36.1532C13.3161 36.0818 13.2591 35.9969 13.2204 35.9034C13.1816 35.8099 13.1619 35.7097 13.1623 35.6085V14.8425C13.1587 14.6998 13.1951 14.5589 13.2675 14.4357C13.3399 14.3125 13.4453 14.2119 13.5719 14.1451L25.4287 7.85883L13.901 1.64575L1.14102 8.5422C1.05141 8.59776 0.95134 8.63447 0.846956 8.65007C0.742572 8.66567 0.636086 8.65984 0.534052 8.63292C0.432018 8.606 0.336594 8.55857 0.253651 8.49355C0.170708 8.42853 0.102002 8.34729 0.0517595 8.25484C0.00151731 8.16238 -0.029198 8.06067 -0.0384962 7.95595C-0.0477945 7.85123 -0.035479 7.74572 -0.00230764 7.64592C0.0308637 7.54612 0.0841893 7.45413 0.154388 7.37562C0.224586 7.29711 0.310172 7.23374 0.40588 7.18941L13.5334 0.0942175C13.646 0.032568 13.7725 0.000244141 13.901 0.000244141C14.0295 0.000244141 14.1559 0.032568 14.2686 0.0942175L27.4311 7.18941C27.554 7.25542 27.6566 7.35331 27.7281 7.47269C27.7997 7.59208 27.8374 7.72852 27.8374 7.86755C27.8374 8.00658 27.7997 8.14301 27.7281 8.2624C27.6566 8.38179 27.554 8.47968 27.4311 8.54569L14.7026 15.3027V34.322L26.6995 27.952C26.8805 27.8558 27.0925 27.8352 27.2888 27.8947C27.4851 27.9542 27.6496 28.089 27.7462 28.2693C27.8427 28.4496 27.8634 28.6607 27.8037 28.8562C27.7439 29.0517 27.6087 29.2156 27.4276 29.3118L14.3001 36.2849C14.1884 36.3454 14.0631 36.3766 13.936 36.3756Z" fill="#16EB96"/>
<path d="M13.9012 43.0001C13.696 43.0001 13.4992 42.9189 13.3541 42.7744C13.2091 42.6299 13.1275 42.4339 13.1275 42.2295V36.0687L0.409579 29.3118C0.286104 29.2457 0.182849 29.1477 0.110747 29.028C0.0386446 28.9083 0.000378546 28.7714 9.18342e-08 28.6319V7.86579C-6.49091e-05 7.73261 0.0343772 7.60166 0.0999956 7.48561C0.165614 7.36956 0.260188 7.27234 0.374573 7.20334C0.489864 7.13625 0.620389 7.09945 0.753884 7.0964C0.88738 7.09335 1.01946 7.12415 1.13772 7.18591L14.2653 14.1591C14.3919 14.2258 14.4973 14.3265 14.5697 14.4497C14.6421 14.5729 14.6785 14.7137 14.6748 14.8564V42.2435C14.6712 42.4454 14.588 42.6378 14.4434 42.7793C14.2987 42.9208 14.104 43.0001 13.9012 43.0001ZM1.5473 28.1682L13.1275 34.322V15.3027L1.5473 9.14886V28.1682Z" fill="#16EB96"/>
<path d="M13.936 36.3755C13.8344 36.3765 13.7337 36.3573 13.6397 36.3191C13.5456 36.2809 13.4601 36.2245 13.3881 36.1532C13.3161 36.0818 13.2591 35.9969 13.2204 35.9034C13.1816 35.8099 13.1619 35.7096 13.1624 35.6085V14.8424C13.1587 14.6998 13.1951 14.5589 13.2675 14.4357C13.3399 14.3125 13.4453 14.2119 13.5719 14.1451L26.6995 7.17195C26.8805 7.07578 27.0925 7.05518 27.2888 7.11468C27.4851 7.17419 27.6496 7.30891 27.7462 7.48923C27.8427 7.66955 27.8634 7.88068 27.8037 8.07618C27.7439 8.27169 27.6087 8.43555 27.4276 8.53172L14.7027 15.3027V34.3219L26.6995 27.952C26.8805 27.8558 27.0925 27.8352 27.2888 27.8947C27.4851 27.9542 27.6496 28.0889 27.7462 28.2692C27.8427 28.4496 27.8634 28.6607 27.8037 28.8562C27.7439 29.0517 27.6087 29.2156 27.4276 29.3117L14.3001 36.2849C14.1884 36.3454 14.0631 36.3766 13.936 36.3755Z" fill="white"/>
<path d="M13.9361 25.9924C13.7643 25.991 13.5979 25.9324 13.4634 25.826C13.3289 25.7196 13.234 25.5714 13.1938 25.4051C13.1536 25.2388 13.1703 25.0638 13.2414 24.9081C13.3124 24.7523 13.4337 24.6247 13.586 24.5455L26.7135 17.5723C26.8946 17.4762 27.1066 17.4556 27.3029 17.5151C27.4992 17.5746 27.6637 17.7093 27.7602 17.8896C27.8568 18.0699 27.8775 18.2811 27.8177 18.4766C27.758 18.6721 27.6227 18.8359 27.4417 18.9321L14.3141 25.9053C14.1978 25.9664 14.0675 25.9965 13.9361 25.9924Z" fill="white"/>
<path d="M13.9011 36.3754C13.7997 36.3759 13.6991 36.3564 13.6053 36.318C13.5114 36.2797 13.4261 36.2233 13.3542 36.152C13.2824 36.0807 13.2253 35.996 13.1864 35.9027C13.1475 35.8094 13.1274 35.7094 13.1274 35.6084V14.8423C13.1274 14.638 13.209 14.442 13.354 14.2975C13.4991 14.153 13.6959 14.0718 13.9011 14.0718C14.1063 14.0718 14.3031 14.153 14.4481 14.2975C14.5932 14.442 14.6747 14.638 14.6747 14.8423V35.6084C14.6747 35.7094 14.6547 35.8094 14.6158 35.9027C14.5769 35.996 14.5198 36.0807 14.4479 36.152C14.376 36.2233 14.2907 36.2797 14.1969 36.318C14.103 36.3564 14.0025 36.3759 13.9011 36.3754Z" fill="white"/>
</g>
<defs>
<clipPath id="clip0_776_4358">
<rect width="129" height="43" fill="white"/>
</clipPath>
</defs>
</svg>